<mxfile host="app.diagrams.net" modified="2023-04-15T05:56:36.060Z" agent="Mozilla/5.0 (Windows NT 10.0; Win64; x64) AppleWebKit/537.36 (KHTML, like Gecko) Chrome/110.0.0.0 Safari/537.36" etag="Y2Bz1BW0TZ7wImRyxQiS" version="21.1.8" type="github">
  <diagram name="第 1 页" id="zQPfo8QOFPiPV3o0EhCK">
    <mxGraphModel dx="794" dy="476" grid="1" gridSize="10" guides="1" tooltips="1" connect="1" arrows="1" fold="1" page="1" pageScale="1" pageWidth="827" pageHeight="1169" math="0" shadow="0">
      <root>
        <mxCell id="0" />
        <mxCell id="1" parent="0" />
        <mxCell id="5U9VxCFmSAjXmchOCSpf-6" value="" style="edgeStyle=orthogonalEdgeStyle;rounded=0;orthogonalLoop=1;jettySize=auto;html=1;" edge="1" parent="1" source="5U9VxCFmSAjXmchOCSpf-1" target="5U9VxCFmSAjXmchOCSpf-3">
          <mxGeometry relative="1" as="geometry" />
        </mxCell>
        <mxCell id="5U9VxCFmSAjXmchOCSpf-1" value="应用程序app" style="rounded=0;whiteSpace=wrap;html=1;" vertex="1" parent="1">
          <mxGeometry x="120" y="130" width="120" height="60" as="geometry" />
        </mxCell>
        <mxCell id="5U9VxCFmSAjXmchOCSpf-2" value="&lt;font style=&quot;font-size: 18px;&quot;&gt;&lt;b&gt;redis缓存击穿&lt;/b&gt;&lt;/font&gt;" style="text;html=1;strokeColor=none;fillColor=none;align=center;verticalAlign=middle;whiteSpace=wrap;rounded=0;" vertex="1" parent="1">
          <mxGeometry x="100" y="60" width="160" height="50" as="geometry" />
        </mxCell>
        <mxCell id="5U9VxCFmSAjXmchOCSpf-5" value="" style="edgeStyle=orthogonalEdgeStyle;rounded=0;orthogonalLoop=1;jettySize=auto;html=1;" edge="1" parent="1" source="5U9VxCFmSAjXmchOCSpf-3" target="5U9VxCFmSAjXmchOCSpf-4">
          <mxGeometry relative="1" as="geometry" />
        </mxCell>
        <mxCell id="5U9VxCFmSAjXmchOCSpf-3" value="" style="image;sketch=0;aspect=fixed;html=1;points=[];align=center;fontSize=12;image=img/lib/mscae/Cache_Redis_Product.svg;" vertex="1" parent="1">
          <mxGeometry x="155" y="270" width="50" height="42" as="geometry" />
        </mxCell>
        <mxCell id="5U9VxCFmSAjXmchOCSpf-4" value="" style="verticalLabelPosition=bottom;html=1;verticalAlign=top;align=center;strokeColor=none;fillColor=#00BEF2;shape=mxgraph.azure.mysql_database;" vertex="1" parent="1">
          <mxGeometry x="161.25" y="410" width="37.5" height="50" as="geometry" />
        </mxCell>
      </root>
    </mxGraphModel>
  </diagram>
</mxfile>
